# xmcd
#
# Track frame offsets:
#	150
#	17147
#	28781
#	51234
#	65960
#	84374
#	104153
#	120542
#	132270
#	143125
#	158222
#	169725
#	181986
#	204105
#	219102
#	232188
#	245832
#	262885
#
# Disc length: 3783 seconds
#
# Revision: 5
# Processed by: cddbd v1.5.2PL0 Copyright (c) Steve Scherf et al.
# Submitted via: EasyCDDAExtractor 4.6.9.1
#
DISCID=050ec512
DTITLE=Josie Katz - Collection
DYEAR=2000
DGENRE=Pop
TTITLE0=Ani Solachat
TTITLE1=Zemer Nuge
TTITLE2=Mah Iti
TTITLE3=Mishehu Tamid
TTITLE4=Etzli Hakol Beseder
TTITLE5=Achakeh Lecha
TTITLE6=Shuv
TTITLE7=Nitpayesah
TTITLE8=Elisheva Ma Nechmedet
TTITLE9=Buba Zahava
TTITLE10=Shmor Lecha Chalom Katan
TTITLE11=Kama Na'im
TTITLE12=Yemei Reishit Hakayitz
TTITLE13=Yalda Ketana
TTITLE14=Teni Li Lehachlit
TTITLE15=Bat Harav V'Ima
TTITLE16=Hachayal Shel Etmol
TTITLE17=שיר אופטימי
EXTD=
EXTT0=
EXTT1=
EXTT2=
EXTT3=
EXTT4=
EXTT5=
EXTT6=
EXTT7=
EXTT8=
EXTT9=
EXTT10=
EXTT11=
EXTT12=
EXTT13=
EXTT14=
EXTT15=
EXTT16=
EXTT17=
PLAYORDER=
